<?xml version="1.0" encoding="utf-8"?>
<!-- Generator: Adobe Illustrator 27.3.0, SVG Export Plug-In . SVG Version: 6.00 Build 0)  -->
<svg version="1.1" id="레이어_1" xmlns="http://www.w3.org/2000/svg" xmlns:xlink="http://www.w3.org/1999/xlink" x="0px"
	 y="0px" viewBox="0 0 25.3 17.2" style="enable-background:new 0 0 25.3 17.2;" xml:space="preserve">
<style type="text/css">
	.st0{fill:url(#SVGID_1_);}
	.st1{fill:url(#SVGID_00000158750295549466653000000006546156480264756653_);}
</style>
<g>
	
		<linearGradient id="SVGID_1_" gradientUnits="userSpaceOnUse" x1="6.0379" y1="-647.1917" x2="-3.1854" y2="-665.9389" gradientTransform="matrix(-1 -7.502440e-04 7.502440e-04 -1 11.4076 -647.871)">
		<stop  offset="0" style="stop-color:#DC3545"/>
		<stop  offset="0.5" style="stop-color:#BF1000"/>
		<stop  offset="1" style="stop-color:#FF3545"/>
	</linearGradient>
	<path class="st0" d="M0.7,11.2c0.5,0.8,1.2,1.4,1.9,1.9c0.3,0.2,0.6,0.4,0.8,0.6c1.2,0.9,2.3,1.8,3.5,2.7c0.8,0.6,2,0.9,3,0.7
		c0.6-0.1,1-0.3,1.5-0.7c0.2-0.1,0.5-0.3,0.6-0.4c0.1-0.1,0.1-0.1,0.2-0.2c0,0,0.1-0.3,0-0.3c-0.6-0.5-1.3-1-1.9-1.5
		c-0.2-0.1-0.3,0.1-0.4,0.1c-0.7,0.3-1.2,0.1-1.8-0.2c0,0,0,0,0,0l-0.6-0.5c-0.9-0.7-1.8-1.4-2.6-2.1c-0.6-0.5-1.2-0.9-1.7-1.4
		C2.9,9.6,2.8,9,3.1,8.5c1.2-1.6,2.5-3.2,3.7-4.8c0.4-0.5,0.9-1.1,1.6-0.8c0.7,0.4,6,4.5,6.7,5.1c-0.2,1-1,0.2-1.5-0.2
		c0.1,1.3,0.2,2.6,0.3,3.9c0.9-0.1,1.8-0.4,2.7-0.5c0.4,0,0.8-0.1,1.1-0.2c-0.3-0.3-0.7-0.5-1-0.8c0.7-0.9,1.5-1.8,2.1-2.7
		c-1.8-1.5-6.7-5.3-7.2-5.7C11.3,1.6,11,1.3,10.6,1c-0.4-0.3-0.8-0.5-1.3-0.7C9.1,0.2,8.8,0.2,8.6,0.2C7.3,0,6,0.5,5.1,1.5
		C4.3,2.6,3.4,3.7,2.5,4.8C1.6,5.9,0.6,7,0.2,8.3C0,9.3,0.2,10.4,0.7,11.2z"/>
	
		<linearGradient id="SVGID_00000093137660878677672830000010110286173626642058_" gradientUnits="userSpaceOnUse" x1="0.9596" y1="-644.6932" x2="-8.2636" y2="-663.4404" gradientTransform="matrix(-1 -7.502440e-04 7.502440e-04 -1 11.4076 -647.871)">
		<stop  offset="0" style="stop-color:#DC3545"/>
		<stop  offset="0.5" style="stop-color:#BF1000"/>
		<stop  offset="1" style="stop-color:#FF3545"/>
	</linearGradient>
	<path style="fill:url(#SVGID_00000093137660878677672830000010110286173626642058_);" d="M8.2,7.2C7.5,8,6.9,8.9,6.3,9.7
		c0.4,0.4,0.9,0.7,1.4,1.1c2.4,1.8,4.7,3.8,7.2,5.5c0.8,0.6,1.8,0.9,2.8,0.7c0.8-0.1,1.5-0.4,2.1-0.9c1.2-1.2,2.1-2.6,3.2-3.9
		c0.6-0.8,1.3-1.5,1.8-2.4c0.5-0.9,0.6-2.1,0.3-3c-0.5-1.7-5.1-5-6.1-5.6c-0.9-0.6-1.9-1.2-3.1-1.1c-1.1,0.1-2.3,0.7-2.9,1.5
		c0.7,0.5,1.4,1.1,2.1,1.6c0.5-0.2,0.9-0.5,1.5-0.4c1,0.6,1.8,1.4,2.8,2.1c0.9,0.8,2,1.4,2.9,2.4c0.3,0.3,0.5,0.7,0.3,1.1
		c-0.4,0.6-0.8,1.1-1.2,1.7c-0.5,0.6-1,1.3-1.5,1.9c-0.3,0.4-0.6,0.8-0.9,1.2c-0.3,0.4-0.5,0.8-0.9,1.1c-0.4,0.3-1,0.3-1.3,0
		c-1.3-0.9-2.5-1.9-3.7-2.9c-0.8-0.7-1.7-1.3-2.6-2C10,9,10.3,8.8,10.5,8.6c0.4,0.2,0.7,0.6,1.1,0.8c0.1-1.3-0.1-2.6-0.3-3.8
		C10,5.7,8.7,6,7.4,6.2C7.6,6.6,8.6,6.8,8.2,7.2z"/>
</g>
</svg>
