<?xml version="1.0" encoding="utf-8"?>
<!-- Generator: Adobe Illustrator 27.2.0, SVG Export Plug-In . SVG Version: 6.00 Build 0)  -->
<svg version="1.1" id="icon" xmlns="http://www.w3.org/2000/svg" xmlns:xlink="http://www.w3.org/1999/xlink" x="0px" y="0px"
	 viewBox="0 0 37 36.6" style="enable-background:new 0 0 37 36.6;" xml:space="preserve">
<style type="text/css">
	.st0{fill:none;stroke:#444444;stroke-width:1.5;stroke-linecap:round;stroke-linejoin:round;stroke-miterlimit:10;}
</style>
<g>
	<path class="st0" d="M29.7,9.4v22.7c0,1.3-1,2.3-2.3,2.3H10c-1.3,0-2.3-1-2.3-2.3V9.4"/>
	<line class="st0" x1="24.7" y1="30.4" x2="24.7" y2="25.4"/>
	<line class="st0" x1="24.7" y1="21.4" x2="24.7" y2="16.4"/>
	<line class="st0" x1="24.7" y1="12.4" x2="24.7" y2="9.4"/>
	<circle class="st0" cx="16.2" cy="27.9" r="2.5"/>
	<path class="st0" d="M4.7,14.4H4.3c-1.5,0-2.7-1.2-2.7-2.7v-0.6c0-1.5,1.2-2.7,2.7-2.7H33c1.5,0,2.7,1.2,2.7,2.7v0.6
		c0,1.5-1.2,2.7-2.7,2.7h-0.3"/>
	<path class="st0" d="M1.7,10.7V5.1c0-1.5,1.2-2.7,2.7-2.7H33c1.5,0,2.7,1.2,2.7,2.7v5.6"/>
</g>
</svg>
