<?xml version="1.0" encoding="utf-8"?>
<!-- Generator: Adobe Illustrator 27.2.0, SVG Export Plug-In . SVG Version: 6.00 Build 0)  -->
<svg version="1.1" id="icon" xmlns="http://www.w3.org/2000/svg" xmlns:xlink="http://www.w3.org/1999/xlink" x="0px" y="0px"
	 viewBox="0 0 37 36.6" style="enable-background:new 0 0 37 36.6;" xml:space="preserve">
<style type="text/css">
	.st0{fill:none;stroke:#444444;stroke-width:1.5;stroke-linecap:round;stroke-linejoin:round;stroke-miterlimit:10;}
</style>
<g>
	<path class="st0" d="M5.7,21.1c0,0-0.8,0-1.7,0c-0.9,0-1.7-0.9-1.7-1.9V4.5c0-1.1,0.9-1.9,1.9-1.9h23.9c1.1,0,1.9,0.9,1.9,1.9v7.3"
		/>
	<rect x="2.3" y="6.8" class="st0" width="27.8" height="3.4"/>
	<path class="st0" d="M34.1,32.9H10.2c-1.1,0-1.9-0.9-1.9-1.9V16.3c0-1.1,0.9-1.9,1.9-1.9h23.9c1.1,0,1.9,0.9,1.9,1.9v14.6
		C36,32,35.1,32.9,34.1,32.9z"/>
	<line class="st0" x1="12.4" y1="28.7" x2="16.6" y2="28.7"/>
	<line class="st0" x1="20" y1="28.7" x2="24.2" y2="28.7"/>
	<line class="st0" x1="27.6" y1="28.7" x2="31.8" y2="28.7"/>
	<circle class="st0" cx="29.7" cy="21.5" r="2.1"/>
</g>
</svg>
