<?xml version="1.0" encoding="utf-8"?>
<!-- Generator: Adobe Illustrator 27.2.0, SVG Export Plug-In . SVG Version: 6.00 Build 0)  -->
<svg version="1.1" id="icon" xmlns="http://www.w3.org/2000/svg" xmlns:xlink="http://www.w3.org/1999/xlink" x="0px" y="0px"
	 viewBox="0 0 37 36.6" style="enable-background:new 0 0 37 36.6;" xml:space="preserve">
<style type="text/css">
	.st0{fill:#444444;}
</style>
<g id="passbook">
	<path class="st0" d="M34.3,31.4l-2.7-13.2V5.3c0-1.8-1.5-3.3-3.3-3.3H8.8C7,2.1,5.5,3.5,5.5,5.3v12.9L2.8,31.4
		c-0.3,1.4,0.6,2.8,2,3.1c0.2,0,0.4,0.1,0.5,0.1h26.4c1.4,0,2.6-1.2,2.6-2.6C34.3,31.8,34.3,31.6,34.3,31.4L34.3,31.4z M6.8,5.3
		c0-1.1,0.9-2,2-2h19.5c1.1,0,2,0.9,2,2v12.4H6.8V5.3z M32.7,32.8c-0.6,0.7,1.4,0.5-27.4,0.5C4.6,33.3,4,32.7,4,32
		c0-0.1,0-0.2,0-0.3L6.7,19h23.7C33.2,32.6,33.3,32.1,32.7,32.8L32.7,32.8z"/>
	<path class="st0" d="M9.4,7.9h5.2c0.4,0,0.7-0.3,0.7-0.7S15,6.6,14.6,6.6H9.4c-0.4,0-0.7,0.3-0.7,0.7S9.1,7.9,9.4,7.9z"/>
	<path class="st0" d="M19.2,9.9H9.4c-0.4,0-0.7,0.3-0.7,0.7c0,0.4,0.3,0.7,0.7,0.7h9.8c0.4,0,0.7-0.3,0.7-0.7
		C19.8,10.2,19.5,9.9,19.2,9.9z"/>
	<path class="st0" d="M12.7,21.6H8.8c-0.4,0-0.7,0.3-0.7,0.7s0.3,0.7,0.7,0.7h3.9c0.4,0,0.7-0.3,0.7-0.7S13,21.6,12.7,21.6z"/>
	<path class="st0" d="M12.7,25.5H8.1c-0.4,0-0.7,0.3-0.7,0.7c0,0.4,0.3,0.7,0.7,0.7h4.6c0.4,0,0.7-0.3,0.7-0.7
		C13.3,25.8,13,25.5,12.7,25.5z"/>
	<path class="st0" d="M12.7,29.4H7.5c-0.4,0-0.7,0.3-0.7,0.7c0,0.4,0.3,0.7,0.7,0.7h5.2c0.4,0,0.7-0.3,0.7-0.7
		C13.3,29.7,13,29.4,12.7,29.4z"/>
	<path class="st0" d="M15.9,22.9h12.4c0.4,0,0.7-0.3,0.7-0.7s-0.3-0.7-0.7-0.7H15.9c-0.4,0-0.7,0.3-0.7,0.7S15.6,22.9,15.9,22.9z"/>
	<path class="st0" d="M15.9,26.8h13c0.4,0,0.7-0.3,0.7-0.7c0-0.4-0.3-0.7-0.7-0.7h-13c-0.4,0-0.7,0.3-0.7,0.7
		C15.3,26.5,15.6,26.8,15.9,26.8z"/>
	<path class="st0" d="M29.6,29.4H15.9c-0.4,0-0.7,0.3-0.7,0.7c0,0.4,0.3,0.7,0.7,0.7h13.7c0.4,0,0.7-0.3,0.7-0.7
		C30.2,29.7,29.9,29.4,29.6,29.4z"/>
</g>
</svg>
